<?xml version="1.0" standalone="no"?>
<!DOCTYPE svg PUBLIC "-//W3C//DTD SVG 20010904//EN"
 "http://www.w3.org/TR/2001/REC-SVG-20010904/DTD/svg10.dtd">
<svg version="1.0" xmlns="http://www.w3.org/2000/svg"
 width="996.000000pt" height="996.000000pt" viewBox="0 0 996.000000 996.000000"
 preserveAspectRatio="xMidYMid meet">
<metadata>
Created by potrace 1.14, written by Peter Selinger 2001-2017
</metadata>
<g transform="translate(0.000000,996.000000) scale(0.100000,-0.100000)"
fill="#000000" stroke="none">
<path d="M7956 9930 c-49 -16 -93 -27 -98 -24 -4 3 -8 1 -8 -4 0 -5 -15 -13
-32 -17 -18 -4 -35 -9 -38 -9 -3 -1 -32 -10 -65 -20 -33 -10 -143 -45 -245
-79 -102 -33 -187 -61 -190 -62 -3 0 -30 -9 -60 -20 -30 -11 -58 -20 -62 -21
-5 -1 -10 -3 -13 -4 -3 -1 -9 -4 -15 -5 -5 -1 -12 -4 -15 -5 -3 -1 -9 -4 -15
-5 -5 -1 -11 -3 -12 -4 -2 -2 -14 -4 -27 -7 -14 -2 -30 -9 -36 -14 -7 -5 -15
-7 -18 -3 -4 3 -7 2 -7 -4 0 -5 -6 -10 -12 -11 -15 -1 -37 -7 -58 -15 -14 -5
-267 -95 -335 -119 -16 -5 -39 -14 -50 -20 -12 -5 -27 -10 -35 -12 -8 -2 -26
-8 -40 -13 -14 -6 -50 -19 -80 -29 -30 -11 -58 -23 -62 -29 -4 -5 -8 -7 -8 -2
0 4 -13 1 -30 -8 -16 -8 -33 -16 -37 -16 -13 -2 -32 -9 -125 -45 -49 -19 -92
-34 -96 -34 -5 0 -27 -9 -50 -20 -23 -11 -56 -23 -72 -27 -17 -3 -30 -9 -30
-14 0 -5 -7 -9 -15 -9 -14 0 -567 -220 -608 -242 -10 -5 -28 -11 -40 -14 -12
-2 -23 -8 -25 -14 -2 -5 -10 -10 -17 -10 -7 0 -67 -23 -132 -51 -65 -28 -129
-56 -143 -62 -14 -5 -28 -10 -32 -9 -5 1 -8 -2 -8 -8 0 -5 -7 -10 -14 -10 -8
0 -36 -11 -62 -25 -26 -14 -49 -23 -52 -20 -3 3 -12 -1 -21 -9 -9 -8 -19 -15
-23 -16 -15 -2 -173 -74 -313 -141 -49 -24 -92 -44 -95 -45 -19 -4 -206 -99
-211 -106 -3 -6 -9 -9 -13 -8 -11 2 -161 -72 -164 -81 -2 -5 -11 -9 -21 -9 -9
0 -21 -4 -26 -9 -6 -5 -64 -37 -130 -71 -66 -35 -156 -83 -200 -108 -44 -25
-109 -61 -145 -80 -36 -19 -72 -40 -80 -47 -8 -6 -33 -20 -55 -30 -22 -10 -42
-21 -45 -25 -3 -4 -23 -17 -45 -29 -86 -47 -151 -85 -163 -97 -6 -7 -22 -16
-35 -20 -12 -4 -24 -10 -27 -13 -6 -8 -139 -91 -146 -91 -3 0 -10 -5 -17 -11
-30 -26 -177 -116 -182 -111 -3 3 -5 1 -5 -5 0 -5 -16 -18 -35 -29 -19 -10
-35 -22 -35 -26 0 -5 -4 -8 -10 -8 -7 0 -175 -111 -215 -142 -32 -25 -136 -98
-140 -98 -5 0 -39 -26 -67 -52 -10 -10 -18 -15 -18 -10 0 4 -4 2 -8 -3 -8 -12
-75 -63 -111 -86 -24 -14 -28 -14 -61 8 -19 12 -39 26 -45 30 -5 5 -22 14 -38
22 -15 8 -27 18 -27 23 0 4 -5 8 -11 8 -9 0 -87 48 -179 110 -8 6 -60 38 -115
72 -55 34 -102 64 -105 67 -6 8 -41 29 -60 38 -8 4 -19 11 -25 15 -5 5 -35 24
-65 43 -30 19 -62 39 -70 45 -8 5 -45 30 -83 54 -37 25 -71 46 -75 47 -4 1
-33 19 -64 40 -31 22 -60 39 -63 39 -3 0 -11 5 -18 10 -7 6 -41 29 -77 52 -36
23 -88 56 -116 75 -28 18 -54 33 -58 33 -4 0 -16 8 -27 19 -11 10 -37 27 -57
37 -35 18 -42 23 -76 52 -8 6 -17 12 -20 12 -6 0 -169 103 -176 111 -3 3 -12
9 -20 12 -8 4 -40 23 -70 41 -30 19 -56 33 -57 32 -1 -1 7 -37 17 -79 11 -43
19 -81 18 -85 -1 -4 4 -26 11 -50 7 -24 14 -55 16 -70 4 -24 9 -51 20 -102 2
-8 4 -15 5 -15 1 0 3 -7 5 -15 1 -8 8 -42 15 -75 7 -33 14 -67 16 -75 9 -52
37 -167 43 -175 3 -5 6 -22 5 -37 0 -16 3 -28 8 -28 5 0 7 -3 4 -8 -2 -4 9
-66 25 -137 15 -72 38 -173 49 -225 12 -52 25 -113 31 -135 5 -22 12 -51 15
-65 2 -14 10 -47 16 -75 5 -27 11 -58 11 -67 1 -10 4 -18 7 -18 3 0 6 -8 7
-17 0 -16 11 -81 18 -108 1 -5 5 -17 8 -25 3 -8 8 -28 11 -45 8 -54 18 -100
23 -115 7 -18 11 -36 17 -75 3 -16 12 -58 20 -92 9 -34 18 -75 21 -92 3 -16
14 -69 26 -118 12 -48 22 -95 24 -103 5 -27 47 -224 51 -240 12 -52 35 -158
38 -175 2 -11 6 -27 9 -35 4 -12 24 -101 43 -195 3 -18 28 -128 39 -180 3 -11
19 -85 36 -165 17 -80 36 -163 42 -185 6 -22 11 -48 13 -57 1 -10 3 -21 4 -25
1 -5 3 -12 4 -18 2 -10 20 -91 32 -145 3 -14 7 -34 9 -45 2 -11 4 -20 5 -20 1
0 4 -13 6 -30 3 -16 9 -43 14 -60 7 -25 21 -98 22 -115 0 -3 4 -15 9 -26 4
-12 11 -41 14 -64 3 -23 10 -53 15 -66 5 -13 7 -24 5 -24 -2 0 0 -12 5 -26 6
-14 12 -40 14 -57 2 -18 11 -60 20 -93 9 -34 18 -77 20 -95 3 -19 5 -34 6 -34
2 0 7 -23 15 -60 2 -11 6 -27 8 -35 6 -23 26 -122 31 -150 3 -14 5 -25 6 -25
1 0 3 -11 6 -25 2 -14 7 -32 10 -40 4 -8 8 -26 10 -39 3 -22 37 -184 51 -241
8 -31 8 -33 22 -100 6 -30 13 -64 16 -75 3 -11 11 -51 20 -90 8 -38 19 -88 25
-110 5 -22 12 -51 15 -65 2 -14 11 -56 20 -95 8 -38 17 -80 20 -92 9 -41 15
-68 20 -91 6 -25 13 -58 30 -137 29 -137 55 -253 59 -265 3 -8 7 -28 9 -45 3
-16 9 -48 15 -70 6 -22 13 -51 16 -65 2 -14 19 -90 37 -170 17 -80 33 -154 35
-165 1 -11 3 -20 4 -20 2 0 4 -9 6 -20 1 -11 6 -33 9 -50 4 -16 8 -37 10 -45
2 -8 4 -15 5 -15 1 0 3 -9 5 -20 1 -11 10 -54 20 -95 9 -41 19 -86 21 -100 3
-14 11 -50 19 -80 7 -30 16 -68 18 -85 3 -16 19 -91 37 -165 17 -74 33 -146
35 -160 2 -14 7 -36 11 -50 3 -14 7 -32 8 -40 2 -8 8 -34 15 -57 6 -23 11 -45
10 -50 -1 -4 0 -10 1 -13 2 -7 8 -31 15 -64 3 -16 12 -55 20 -88 7 -32 11 -58
8 -58 -3 0 0 -7 7 -15 7 -8 10 -15 7 -15 -3 0 -1 -17 4 -37 6 -21 11 -43 12
-50 2 -7 6 -15 9 -19 4 -3 4 -12 1 -20 -3 -8 7 -30 22 -50 l27 -35 86 6 c48 3
98 8 112 10 55 10 96 17 125 21 17 2 58 10 92 18 34 9 77 18 95 22 46 8 63 12
63 14 0 1 16 4 35 7 19 2 37 8 40 11 3 4 14 8 25 9 27 3 70 11 70 13 0 1 7 3
15 5 97 22 226 60 228 67 2 4 8 6 13 2 8 -5 52 7 202 53 26 8 53 16 60 17 7 1
18 5 25 9 6 5 12 6 12 3 0 -3 17 2 38 11 20 8 38 14 40 13 2 -1 15 3 30 8 21
9 96 31 122 37 9 2 174 56 190 62 18 7 12 5 85 27 33 10 65 21 70 24 6 4 15 8
20 9 6 1 44 14 85 28 41 15 82 28 90 30 8 2 31 10 51 19 20 8 39 12 43 9 3 -4
6 -1 6 5 0 6 15 14 33 17 17 4 43 12 57 18 14 6 27 11 30 12 3 1 12 5 20 8 8
4 58 22 110 41 205 76 236 87 265 101 60 27 90 38 103 36 6 -1 12 2 12 7 0 5
6 9 13 9 6 0 30 8 52 18 22 10 45 19 51 20 5 2 35 14 65 27 30 14 92 40 139
59 47 19 87 37 90 41 3 4 15 9 25 11 11 2 51 17 88 35 38 18 70 32 72 32 2 0
36 15 77 34 40 18 96 43 123 55 28 12 71 33 96 46 25 14 49 22 53 18 3 -3 6
-1 6 5 0 7 5 12 12 12 16 0 596 288 603 300 4 6 10 8 15 5 5 -3 11 -1 14 4 3
4 32 21 63 37 32 16 60 31 63 34 3 3 25 15 50 28 40 20 63 33 135 75 11 6 23
10 28 9 4 -1 7 2 7 8 0 5 7 10 15 10 8 0 15 5 15 10 0 6 5 10 11 10 11 0 197
107 238 137 13 10 27 18 30 18 3 0 33 18 66 39 33 22 89 57 125 79 36 22 67
43 70 47 3 3 12 10 20 13 17 8 49 29 114 75 26 17 50 32 53 32 3 0 14 10 24
22 11 11 19 18 19 15 0 -4 24 10 53 31 95 67 229 166 271 200 23 17 46 36 51
40 37 28 101 77 105 82 3 3 27 23 54 45 27 21 60 48 72 60 12 11 40 34 61 52
21 17 57 49 81 72 24 23 47 41 52 41 6 0 10 4 10 9 0 20 29 18 51 -2 13 -12
24 -20 24 -18 0 5 6 1 168 -103 64 -42 122 -76 127 -76 6 0 10 -4 10 -8 0 -5
12 -15 28 -23 26 -13 122 -74 322 -204 55 -36 104 -65 108 -65 5 0 17 -9 27
-20 10 -11 22 -20 26 -20 8 0 174 -105 280 -176 19 -13 40 -24 47 -24 7 0 12
-4 12 -8 0 -4 28 -25 63 -45 34 -21 71 -43 82 -50 11 -7 24 -18 28 -24 4 -7
13 -13 18 -13 6 0 48 -24 92 -53 45 -30 87 -57 94 -61 13 -7 13 -5 -7 79 -6
28 -14 61 -17 75 -9 44 -11 55 -13 55 -2 0 -6 21 -14 69 -3 21 -9 42 -12 47
-3 5 -7 23 -9 41 -2 18 -6 42 -9 53 -5 17 -16 62 -41 170 -9 38 -16 70 -20 90
-8 43 -16 82 -26 116 -5 21 -13 57 -18 80 -5 24 -17 76 -26 114 -9 39 -18 79
-20 90 -4 23 -40 181 -54 240 -6 22 -8 41 -6 44 3 2 0 9 -5 16 -5 6 -12 27
-15 46 -2 19 -9 52 -14 74 -6 22 -10 41 -11 43 0 1 0 3 -1 5 0 1 -3 16 -5 32
-3 17 -7 37 -11 45 -3 8 -7 24 -9 35 -3 23 -11 58 -18 83 -3 9 -7 28 -10 42
-2 14 -16 77 -30 140 -15 63 -28 124 -31 135 -2 11 -9 39 -15 63 -6 24 -8 47
-5 52 3 5 1 11 -4 14 -5 3 -12 23 -16 43 -5 21 -10 45 -12 53 -2 8 -5 27 -7
41 -1 14 -5 30 -8 35 -5 9 -17 66 -23 109 -2 11 -7 31 -13 45 -5 14 -8 33 -7
43 2 9 -1 17 -7 17 -6 0 -8 6 -5 14 3 8 3 17 -1 21 -4 4 -8 15 -8 26 -1 10 -2
20 -4 22 -1 1 -3 11 -5 22 -7 39 -16 80 -21 95 -3 8 -8 25 -10 38 -7 37 -13
66 -18 90 -19 77 -57 243 -62 272 -2 14 -12 54 -20 90 -9 36 -18 74 -20 85 -5
24 -13 60 -21 95 -3 14 -7 35 -7 48 -1 12 -5 22 -10 22 -4 0 -6 7 -3 15 4 8 2
17 -2 19 -5 3 -9 17 -10 31 -3 48 -4 55 -12 55 -4 0 -6 9 -4 20 2 11 -1 22 -6
25 -5 4 -7 10 -4 15 3 5 1 19 -4 33 -5 13 -12 37 -14 53 -3 16 -10 52 -17 79
-6 28 -13 57 -15 65 -2 8 -10 45 -19 81 -16 69 -21 93 -31 144 -3 17 -10 46
-15 65 -5 19 -11 46 -14 60 -18 81 -27 124 -46 205 -12 50 -23 101 -25 115 -3
14 -12 54 -20 90 -9 36 -18 74 -20 85 -5 22 -18 77 -20 85 -1 3 -5 26 -9 53
-5 26 -12 50 -17 53 -5 3 -7 9 -5 13 3 4 1 23 -4 42 -5 19 -11 45 -14 59 -2
14 -18 85 -36 159 -26 112 -47 207 -75 337 -3 12 -19 82 -36 155 -17 74 -32
143 -34 154 -2 11 -13 63 -25 115 -12 52 -30 133 -40 180 -11 47 -33 144 -50
215 -17 72 -32 139 -34 150 -2 11 -5 20 -6 20 -1 0 -3 11 -4 25 -2 14 -5 32
-9 40 -3 8 -9 33 -13 55 -4 22 -9 49 -11 60 -3 11 -5 25 -7 30 -1 6 -4 15 -7
20 -4 6 -5 18 -4 28 2 9 0 17 -4 17 -4 0 -8 10 -8 23 -1 12 -6 40 -11 62 -12
51 -42 184 -48 210 -2 11 -22 98 -44 194 -22 95 -37 177 -34 182 3 5 1 9 -4 9
-5 0 -9 6 -9 13 0 6 -8 44 -18 82 -16 68 -19 83 -29 133 -3 13 -8 33 -12 44
-3 11 -7 30 -9 41 -12 79 -36 179 -50 207 -7 14 -10 31 -8 38 6 17 -9 14 -111
-18z"/>
</g>
</svg>
