<?xml version="1.0" encoding="UTF-8"?>
<svg id="Layer_1" data-name="Layer 1" xmlns="http://www.w3.org/2000/svg" viewBox="0 0 491.21 498.44">
  <defs>
    <style>
      .cls-1 {
        fill: none;
        stroke: #000;
        stroke-miterlimit: 50;
        stroke-width: 6.2px;
      }

      .cls-2 {
        fill: #fff;
      }

      .cls-3 {
        fill: #89b34d;
      }

      .cls-4 {
        fill: #446a9c;
      }
    </style>
  </defs>
  <g>
    <path d="m457.48,269.11l29.06,129.16-75.84-48.37c19.89-18.26,43.82-35.13,44.86-67.29.14-4.67-.27-8.92-1.22-12.8l3.14-.7Z"/>
    <path class="cls-2" d="m397.96,4.51l59.52,264.6-3.14.7c-11.96-49.86-109.46-38.17-207.17-24.18l-154.94-98.8c36.43-28.38,77.53-50.37,81.33-52.5C246.96,53.38,353.9,16.47,397.73,3.81l.23.7Z"/>
    <path class="cls-3" d="m454.34,269.81c.95,3.88,1.36,8.14,1.22,12.8-1.03,32.16-24.97,49.03-44.86,67.29l-163.53-104.27c97.71-13.98,195.21-25.67,207.17,24.18Z"/>
    <path class="cls-2" d="m410.7,349.9l-1.55,1.43c-96.69,90.15-286.28,143.95-315.01,144.01l-.83-.95L35.26,230.28l.72-.17c1.3,5.33,4.07,10.49,8.59,15.32,25.57,27.43,114.17,12.87,202.6.19l163.53,104.27Z"/>
    <path class="cls-4" d="m92.24,146.83l154.94,98.8c-88.43,12.68-177.03,27.24-202.6-.19-4.52-4.83-7.29-10-8.59-15.32-6.32-26.23,23.03-57.41,56.26-83.29Z"/>
    <path d="m4.63,90.96l87.61,55.86c-33.23,25.88-62.58,57.06-56.26,83.29l-.72.17L4.63,90.96Z"/>
  </g>
  <path class="cls-1" d="m410.7,349.9l75.84,48.37-29.06-129.16L397.96,4.51l-.23-.7c-43.82,12.66-150.76,49.57-224.16,90.52-3.8,2.13-44.9,24.12-81.33,52.5-33.23,25.88-62.58,57.06-56.26,83.29,1.3,5.33,4.07,10.49,8.59,15.32,25.57,27.43,114.17,12.87,202.6.19,97.71-13.98,195.21-25.67,207.17,24.18.95,3.88,1.36,8.14,1.22,12.8-1.03,32.16-24.97,49.03-44.86,67.29l-1.55,1.43c-96.69,90.15-286.28,143.95-315.01,144.01l-.83-.95L35.26,230.28,4.63,90.96l87.61,55.86,154.94,98.8,163.53,104.27Z"/>
</svg>